<?xml version="1.0" standalone="no"?><!DOCTYPE svg PUBLIC "-//W3C//DTD SVG 1.1//EN" "http://www.w3.org/Graphics/SVG/1.1/DTD/svg11.dtd"><svg id="branding" viewBox="0 0 160 102" version="1.1"	xmlns="http://www.w3.org/2000/svg" xmlns:xlink="http://www.w3.org/1999/xlink" xml:space="preserve"	x="0px" y="0px" width="160px" height="102px">	<path d="M 0.0269 99.1949 C -0.1976 100.7432 1.0067 102 2.7146 102 L 157.2852 102 C 158.9928 102 160.197 100.7432 159.9725 99.1949 L 147.8616 14.8051 C 147.6377 13.2568 146.2939 12 144.8635 12 L 15.1362 12 C 13.7058 12 12.3621 13.2568 12.1382 14.8051 L 0.0269 99.1949 Z" fill="#ac0000"/>	<path d="M 13.9683 3.2609 L 13 9.9931 L 13 10.8191 C 13.3085 10.6224 13.6823 10.2465 14.0533 10 L 58.7339 10 C 58.8881 9.6581 59.9825 9.2762 60 8.878 L 60 2.8051 C 60.067 1.2568 58.989 0 57.5947 0 L 16.7665 0 C 15.448 0 14.2042 1.122 13.8798 2.5525 C 13.8628 2.6369 13.9803 3.1765 13.9683 3.2609 Z" fill="#ac0000"/>	<path d="M 73.6863 22 C 73.5288 22.7782 73.3702 23.5561 73.2117 24.3342 C 72.1447 24.3342 71.0776 24.3342 70.0107 24.3342 C 69.9291 28.2229 69.8466 32.1113 69.7646 36 C 68.8307 36 67.8965 36 66.9626 36 C 67.0673 32.1113 67.1714 28.2229 67.2754 24.3342 C 66.1841 24.3342 65.0918 24.3342 64 24.3342 C 64.0259 23.5561 64.0524 22.7782 64.0787 22 C 67.2809 22 70.4842 22 73.6863 22 Z" fill="#ffffff"/>	<path d="M 77.5414 22 C 77.5314 23.8138 77.5215 25.6276 77.5116 27.4415 C 78.806 27.4415 80.1004 27.4415 81.3948 27.4415 C 81.3898 25.6276 81.3855 23.8138 81.3811 22 C 82.2878 22 83.1953 22 84.1025 22 C 84.1411 26.6666 84.1796 31.3334 84.2182 36 C 83.2844 36 82.3506 36 81.4169 36 C 81.4114 33.9175 81.4064 31.8353 81.4009 29.7527 C 80.1004 29.7527 78.7999 29.7527 77.499 29.7527 C 77.4874 31.8353 77.4764 33.9175 77.4648 36 C 76.5514 36 75.6375 36 74.7235 36 C 74.7748 31.3334 74.8259 26.6666 74.8777 22 C 75.7658 22 76.6539 22 77.5414 22 Z" fill="#ffffff"/>	<path d="M 94.4077 22 C 94.3151 22.7651 94.222 23.5298 94.1285 24.2949 C 92.599 24.2949 91.0689 24.2949 89.5394 24.2949 C 89.5604 25.3773 89.5818 26.4597 89.6028 27.5421 C 90.89 27.5421 92.1772 27.5421 93.4645 27.5421 C 93.4854 28.3071 93.5069 29.0719 93.5278 29.8369 C 92.2471 29.8369 90.9665 29.8369 89.6859 29.8369 C 89.7101 31.0853 89.7344 32.3333 89.7591 33.5816 C 91.4819 33.5816 93.2047 33.5816 94.9268 33.5816 C 94.951 34.3876 94.9758 35.1939 95 36 C 92.3347 36 89.6694 36 87.004 36 C 86.9391 31.3334 86.8741 26.6666 86.8087 22 C 89.3419 22 91.8745 22 94.4077 22 Z" fill="#ffffff"/>	<path d="M 30.2596 42.0559 C 29.8525 46.1313 29.4464 50.207 29.0403 54.2824 C 28.9012 55.6755 28.9259 55.9958 29.1488 56.507 C 29.4993 57.3318 30.3575 57.7871 31.6087 57.7871 C 32.6188 57.7871 33.4705 57.4668 33.9777 56.9616 C 34.4229 56.507 34.7133 55.9958 34.8927 53.9621 C 35.2432 49.9933 35.5936 46.0246 35.9441 42.0559 C 37.1968 42.0559 38.4496 42.0559 39.7019 42.0559 C 39.3652 46.2306 39.0273 50.4055 38.6901 54.5802 C 38.4738 57.254 38.0172 58.1918 36.9218 59.1802 C 35.8275 60.1685 34.0245 61.0003 31.3918 61 C 28.4786 61 26.449 60.146 25.5313 58.5116 C 25.0031 57.5512 24.897 56.7988 25.0889 55.0075 C 25.5522 50.6902 26.0154 46.3732 26.4788 42.0559 C 27.7387 42.0559 28.9991 42.0559 30.2596 42.0559 Z" fill="#ffffff"/>	<path d="M 47.2015 42 C 46.8557 47.2776 46.5098 52.5549 46.1639 57.8326 C 48.4426 57.8326 50.7214 57.8326 53 57.8326 C 52.7169 58.8884 52.4319 59.9442 52.1459 61 C 48.7636 61 45.3818 61 42 61 C 42.4623 54.6665 42.9246 48.3334 43.3869 42 C 44.6584 42 45.93 42 47.2015 42 Z" fill="#ffffff"/>	<path d="M 64.8486 42.0559 C 64.6143 43.0892 64.3788 44.1226 64.1422 45.1559 C 62.6699 45.1559 61.1976 45.1559 59.7253 45.1559 C 59.5162 50.3211 59.3071 55.486 59.0986 60.6512 C 57.8008 60.6512 56.5035 60.6512 55.2061 60.6512 C 55.4536 55.486 55.7018 50.3211 55.9499 45.1559 C 54.4419 45.1559 52.9338 45.1559 51.4263 45.1559 C 51.4858 44.1226 51.5441 43.0892 51.6029 42.0559 C 56.0182 42.0559 60.434 42.0559 64.8486 42.0559 Z" fill="#ffffff"/>	<path d="M 70.3791 42.0559 C 70.2586 48.2544 70.1387 54.4527 70.0181 60.6512 C 68.6823 60.6512 67.347 60.6512 66.0112 60.6512 C 66.179 54.4527 66.3474 48.2544 66.5157 42.0559 C 67.8032 42.0559 69.0906 42.0559 70.3791 42.0559 Z" fill="#ffffff"/>	<path d="M 79.7975 42 C 80.6022 45.1716 81.4229 48.343 82.2587 51.5146 C 82.6167 52.8803 82.7557 53.4256 82.9217 54.4124 C 83.1099 53.4258 83.2925 52.553 83.5853 51.4339 C 84.4133 48.2891 85.2252 45.1447 86.0222 42 C 87.6442 42 89.2664 42 90.8886 42 C 91.5721 48.3334 92.2755 54.6665 93 61 C 91.7315 61 90.4625 61 89.1939 61 C 88.8973 57.6183 88.6045 54.2362 88.3167 50.8544 C 88.2193 49.6552 88.1219 48.8347 88.1059 47.8249 C 87.9083 48.9148 87.7816 49.4657 87.4755 50.6134 C 86.5319 54.0756 85.5688 57.5378 84.5854 61 C 83.4552 61 82.3251 61 81.1954 61 C 80.2778 57.6737 79.3768 54.3472 78.4936 51.0209 C 78.2522 50.0912 77.7486 47.7094 77.7497 47.7094 C 77.7442 48.8347 77.6833 49.9017 77.598 51.0786 C 77.3651 54.3858 77.1276 57.6928 76.8868 61 C 75.5912 61 74.2956 61 73 61 C 73.6819 54.6665 74.3416 48.3334 74.9802 42 C 76.5864 42 78.1914 42 79.7975 42 Z" fill="#ffffff"/>	<path d="M 103.4277 53.3393 C 103.4272 53.3393 102.7397 51.3486 102.2702 49.5232 C 102.0522 48.6533 101.4008 46.1703 101.4008 46.1703 C 101.4019 46.1703 100.9731 48.4075 100.6876 49.8266 C 100.394 51.1882 100.1971 52.0861 99.8462 53.3393 C 101.0402 53.3393 102.2336 53.3393 103.4277 53.3393 ZM 110 61 C 108.6615 61 107.3232 61 105.9847 61 C 105.4761 59.5013 104.9716 58.0022 104.4704 56.5034 C 102.6662 56.5034 100.8615 56.5034 99.0573 56.5034 C 98.6763 58.0022 98.2921 59.5013 97.9041 61 C 96.6027 61 95.3013 61 94 61 C 95.8745 54.6666 97.6754 48.3334 99.4034 42 C 100.7004 42 101.9981 42 103.2957 42 C 105.46 48.3334 107.6945 54.6666 110 61 Z" fill="#ffffff"/>	<path d="M 120 42 C 119.8835 43.0558 119.7657 44.1116 119.6465 45.1674 C 118.2021 45.1674 116.7579 45.1674 115.3135 45.1674 C 115.6757 50.4451 116.0378 55.7224 116.3994 61 C 115.1267 61 113.8536 61 112.5809 61 C 112.257 55.7224 111.9332 50.4451 111.6093 45.1674 C 110.1283 45.1674 108.6478 45.1674 107.1667 45.1674 C 107.1111 44.1116 107.0555 43.0558 107 42 C 111.3335 42 115.6665 42 120 42 Z" fill="#ffffff"/>	<path d="M 132.7341 42 C 132.6812 43.0387 132.6282 44.0771 132.5735 45.1159 C 130.4103 45.1159 128.2465 45.1159 126.0833 45.1159 C 126.2187 46.583 126.354 48.0502 126.4899 49.5173 C 128.3125 49.5173 130.1357 49.5173 131.9588 49.5173 C 132.066 50.556 132.1725 51.5944 132.2797 52.6332 C 130.4627 52.6332 128.6458 52.6332 126.8294 52.6332 C 126.9861 54.3301 127.1429 56.027 127.2997 57.7239 C 129.7505 57.7239 132.2007 57.7239 134.6515 57.7239 C 134.7676 58.8158 134.8838 59.9081 135 61 C 131.2042 61 127.4086 61 123.6128 61 C 123.0748 54.6665 122.5374 48.3334 122 42 C 125.5781 42 129.1561 42 132.7341 42 Z" fill="#ffffff"/>	<path d="M 17.5941 77.7908 C 18.4631 77.7908 19.3316 77.7908 20.2006 77.7908 C 22.2368 77.7908 22.8707 77.5573 23.6529 76.6007 C 24.153 75.9723 24.4049 75.2488 24.523 74.1591 C 24.6378 73.1018 24.4473 72.2786 23.9486 71.6833 C 23.4479 71.0554 22.6434 70.7273 21.5828 70.7273 C 20.5377 70.7273 19.4926 70.7273 18.4475 70.7273 C 18.1635 73.0818 17.8788 75.4364 17.5941 77.7908 ZM 20.405 67 C 24.5286 67 25.7497 67.3957 27.0421 68.1184 C 29.1912 69.3085 30.2185 71.4226 29.9612 74.0586 C 29.6649 77.0956 27.8521 79.604 24.992 80.7947 C 23.7855 81.2895 22.6801 81.5508 19.9099 81.5508 C 18.9868 81.5508 18.0632 81.5508 17.1395 81.5508 C 16.7992 84.3672 16.4587 87.1836 16.1179 90 C 14.4122 90 12.7063 90 11 90 C 11.9988 82.3333 12.9982 74.6667 13.9976 67 C 16.1334 67 18.2692 67 20.405 67 Z" fill="#ffffff"/>	<path d="M 40.4644 81.7279 C 40.4639 81.7279 39.8424 79.3194 39.4859 77.1059 C 39.3242 76.0489 38.8301 73.0451 38.8312 73.0451 C 38.8318 73.0451 37.9507 75.754 37.3759 77.4671 C 36.8009 79.119 36.4097 80.2096 35.7689 81.7279 C 37.334 81.7279 38.8992 81.7279 40.4644 81.7279 ZM 48 91 C 46.2449 91 44.4897 91 42.734 91 C 42.278 89.185 41.8278 87.3696 41.3835 85.5546 C 39.0181 85.5546 36.6532 85.5546 34.2872 85.5546 C 33.5743 87.3696 32.8549 89.185 32.1301 91 C 30.4204 91 28.7097 91 27 91 C 30.3861 83.3333 33.6589 75.6667 36.8192 68 C 38.5117 68 40.2037 68 41.8958 68 C 43.8223 75.6667 45.8568 83.3333 48 91 Z" fill="#ffffff"/>	<path d="M 64.5601 71.9819 C 63.3683 71.1184 62.1016 70.6872 60.7509 70.6872 C 59.1219 70.6872 57.5034 71.4549 56.5806 72.6824 C 55.585 74.0099 55.0804 75.9432 54.962 78.6328 C 54.8228 81.7936 55.03 83.5529 55.7247 84.8137 C 56.6447 86.5117 58.2584 87.4078 60.4035 87.408 C 61.935 87.408 63.2051 87.0102 64.6894 85.9119 C 65.4253 86.8871 66.1655 87.8622 66.9097 88.8374 C 64.9081 90.3335 62.7635 91 59.9208 91 C 56.4667 91 53.8442 89.9693 51.9122 87.8058 C 50.012 85.716 49.171 82.9197 49.3567 79.5292 C 49.5145 76.6382 50.1655 74.3459 51.3835 72.3518 C 53.4355 68.9952 56.9587 67 60.8063 67 C 63.1761 67 65.5311 67.7289 66.8192 68.8266 C 66.0707 69.8784 65.3179 70.9301 64.5601 71.9819 Z" fill="#ffffff"/>	<path d="M 74.6628 67.493 C 74.6371 71.0065 74.6114 74.5196 74.5856 78.0331 C 76.9297 74.5196 79.2282 71.0065 81.4807 67.493 C 83.4543 67.493 85.428 67.493 87.4017 67.493 C 84.9136 71.0626 82.3739 74.6321 79.7816 78.2016 C 82.6835 82.335 85.6526 86.4687 88.6887 90.6022 C 86.485 90.6022 84.2817 90.6022 82.0774 90.6022 C 79.5236 86.5787 77.025 82.5556 74.5818 78.5321 C 74.5522 82.5556 74.5231 86.5787 74.4935 90.6022 C 72.7785 90.6022 71.0646 90.6022 69.3496 90.6022 C 69.4789 82.8992 69.6082 75.196 69.7369 67.493 C 71.3791 67.493 73.0207 67.493 74.6628 67.493 Z" fill="#ffffff"/>	<path d="M 101.9892 81.2611 C 101.9887 81.2611 101.0742 78.8347 100.4632 76.6048 C 100.1729 75.5399 99.3252 72.5138 99.3263 72.5138 C 99.3274 72.5138 98.7329 75.2428 98.3389 76.9687 C 97.9438 78.6328 97.6617 79.7316 97.1834 81.2611 C 98.7855 81.2611 100.3871 81.2611 101.9892 81.2611 ZM 110.7572 90.6022 C 108.96 90.6022 107.1634 90.6022 105.3661 90.6022 C 104.6911 88.7736 104.0221 86.9448 103.3591 85.1163 C 100.9405 85.1163 98.5214 85.1163 96.1023 85.1163 C 95.5762 86.9448 95.0443 88.7736 94.5061 90.6022 C 92.7578 90.6022 91.0087 90.6022 89.2603 90.6022 C 91.8542 82.8784 94.3319 75.155 96.6935 67.4312 C 98.4255 67.4312 100.1581 67.4312 101.8901 67.4312 C 104.7343 75.155 107.6904 82.8784 110.7572 90.6022 Z" fill="#ffffff"/>	<path d="M 126.2094 72.6824 C 124.5343 71.4549 122.8637 70.8888 121.0226 70.8885 C 119.6074 70.8885 118.4205 71.2869 117.6469 72.0486 C 116.1209 73.5448 115.8705 76.0385 116.1072 79.4963 C 116.3318 82.7903 117.0781 84.9149 118.4095 86.0805 C 119.3981 86.9095 120.7914 87.3741 122.3958 87.3741 C 123.507 87.3741 124.3837 87.2121 125.171 86.8083 C 125.0237 85.0583 124.8762 83.3082 124.7294 81.5582 C 123.4813 81.5582 122.233 81.5582 120.9848 81.5582 C 120.6758 80.2955 120.3679 79.0331 120.0616 77.7704 C 123.2089 77.7704 126.3563 77.7704 129.5041 77.7704 C 129.8488 81.448 130.1934 85.1259 130.538 88.8035 C 128.1216 90.2041 125.3677 90.8656 122.4238 90.8654 C 118.6792 90.8654 115.8272 89.7392 113.6766 87.3413 C 111.7194 85.1836 110.7649 82.7238 110.5643 79.2665 C 110.2832 74.3798 111.756 70.9225 114.9544 68.7599 C 116.642 67.6277 118.3899 67.1292 120.6572 67.1292 C 123.5492 67.1292 126.2357 68.0255 128.5118 69.7908 C 127.7491 70.7548 126.9814 71.7184 126.2094 72.6824 Z" fill="#ffffff"/>	<path d="M 145.7249 67 C 145.678 68.2587 145.63 69.5173 145.5809 70.776 C 142.8117 70.776 140.0431 70.776 137.274 70.776 C 137.4715 72.5512 137.6685 74.3267 137.8654 76.102 C 140.2043 76.102 142.5425 76.102 144.8807 76.102 C 145.0369 77.3587 145.1936 78.6152 145.3497 79.8719 C 143.0181 79.8719 140.687 79.8719 138.3554 79.8719 C 138.5838 81.9244 138.8122 83.9766 139.0406 86.0291 C 142.1899 86.0291 145.3393 86.0291 148.4891 86.0291 C 148.6596 87.3528 148.8295 88.6763 149 90 C 144.1133 90 139.2271 90 134.3404 90 C 133.5602 82.3334 132.7802 74.6666 132 67 C 136.575 67 141.1498 67 145.7249 67 Z" fill="#ffffff"/>	<path d="M 13.8705 3.0029 L 13.8331 3.2609 C 13.8452 3.1765 13.8628 3.0927 13.8798 3.0084 L 13.8705 3.0029 Z" fill="#ac0000"/>	<path d="M 149.8827 0 L 149.8827 0.5643 L 151.4207 0.5643 L 151.4207 5.6102 L 152.0814 5.6102 L 152.0814 0.5643 L 153.6361 0.5643 L 153.6779 0 L 149.8827 0 Z" fill="#ac0000"/>	<path d="M 154.9342 0 L 154.4325 5.6102 L 155.0931 5.6102 L 155.4106 1.6191 C 155.4359 1.2758 155.4774 0.5317 155.4774 0.5317 C 155.5611 0.9243 155.6448 1.2023 155.762 1.6274 L 156.8987 5.6102 L 157.4841 5.6102 L 158.7128 1.423 C 158.7795 1.2023 158.8802 0.8177 158.9388 0.5397 C 158.9388 0.5397 158.9551 1.1367 158.9803 1.4966 L 159.3145 5.6102 L 160 5.6102 L 159.5071 0 L 158.4956 0 L 157.4167 3.7293 C 157.3337 4.0154 157.3003 4.1708 157.2078 4.6453 C 157.1328 4.2118 157.0907 4.0563 156.9824 3.6638 L 155.9372 0 L 154.9342 0 Z" fill="#ac0000"/></svg>