<?xml version="1.0" standalone="no"?><!DOCTYPE svg PUBLIC "-//W3C//DTD SVG 1.1//EN" "http://www.w3.org/Graphics/SVG/1.1/DTD/svg11.dtd"><svg id="branding" viewBox="0 0 271 66" version="1.1"	xmlns="http://www.w3.org/2000/svg" xmlns:xlink="http://www.w3.org/1999/xlink" xml:space="preserve"	x="0px" y="0px" width="271px" height="66px">	<path d="M 35.1125 38.4825 C 35.1125 32.1243 31.5337 28.0613 25.6142 26.3492 C 27.8168 25.6644 28.6428 25.1851 30.0194 23.8839 C 32.1532 21.765 33.2545 18.712 33.2545 15.1247 C 33.2545 11.3085 32.0156 8.5588 29.3311 6.3088 C 26.4401 3.8602 23.3525 3 17.0828 3 L 0 3 L 0 52 L 15.6281 52 C 18.4311 52 20.8446 51.9309 22.4674 51.8618 C 30.9831 51.4474 35.1125 45.1776 35.1125 38.4825 L 35.1125 38.4825 ZM 24.2375 37.2947 C 24.2375 39.6004 23.1312 41.7642 21.5822 42.8821 C 20.4758 43.7205 18.9268 44 16.7878 44 L 10 44 L 10 31 L 16.4172 31 C 18.335 31 19.2219 31.0689 20.4758 31.4182 C 22.7624 32.0471 24.2375 34.4999 24.2375 37.2947 L 24.2375 37.2947 ZM 23.1312 16.9565 C 23.1312 19.0936 21.8773 21.5498 20.4758 22.3131 C 19.5907 22.771 18.4843 23 16.0502 23 L 10 23 L 10 11 L 15.9671 11 C 18.2537 11 19.2956 11.3043 20.1808 11.6859 C 22.0248 12.4492 23.1312 14.7431 23.1312 16.9565 L 23.1312 16.9565 Z" fill="#ac0000"/>	<path d="M 62.1237 16.8144 C 60.6535 16.1982 60.0235 16.0625 58.6233 16.0625 C 55.1229 16.0625 52.2526 18.3891 50.2686 21.0593 C 50.1361 19.0737 49.6724 17.499 48.8776 16.0625 L 40.6699 18.2522 C 41.4399 20.2377 42 23.7979 42 28.5221 L 42 52 L 51 52 L 51 27.2152 C 52.7502 25.2297 54.6404 24.2087 56.7406 24.2087 C 57.7907 24.2087 58.6233 24.4141 59.5334 24.8934 L 62.1237 16.8144 L 62.1237 16.8144 Z" fill="#ac0000"/>	<path d="M 95.3574 47.7495 C 92.2071 45.4342 91.9333 43.8957 92 40.306 L 92 28.5117 C 92.07 24.8938 91.86 23.8408 91.3925 22.3707 C 90.058 18.3802 86.2737 16.14 80.3999 16.14 C 77.1009 16.14 74.0827 16.7701 70.6293 18.2402 C 68.1431 19.2903 66.7618 19.9904 64.8972 21.1805 L 68.8337 27.6566 C 72.632 25.2227 75.7805 23.8408 78.7987 23.8408 C 82.2381 23.8408 83 25.0911 83 28.8406 L 83 30.2276 C 82.2381 30.1562 81.6064 30.1562 80.9044 30.1562 C 69.5319 30.1562 64.1375 34.1829 64.1375 42.1649 C 64.1375 48.9396 68.4193 53 76.3288 53 C 79.2768 53 81.8037 52.2999 83.5379 51.0398 C 84.2051 50.5497 84.9391 49.8497 85.6064 49.1496 C 86.4738 50.9698 88.3422 52.58 90.4107 53.4901 L 95.3029 47.7495 L 95.3574 47.7495 ZM 83 36.8438 L 83 43.8957 C 81.5962 45.306 79.9085 46.1393 78.1538 46.1393 C 75.7673 46.1393 74.0125 44.4085 74.0125 41.8444 C 74.0125 37.9342 76.2586 36.8438 82.7863 36.8438 L 83 36.8438 L 83 36.8438 Z" fill="#ac0000"/>	<path d="M 130 52 L 130 26.2627 C 130 24.0659 129.7602 22.5342 129.2896 21.2101 C 128.2139 18.1439 124.8524 16.0529 121.0134 16.0529 C 118.8125 16.0529 116.2448 16.6108 114.2639 17.5864 C 112.6499 18.4227 111.4027 19.2589 110.0361 20.2345 C 110.0361 18.7711 109.5724 17.238 108.7776 15.7729 L 100.7399 18.1439 C 101.58 20.5133 102 23.4401 102 26.4686 L 102 52 L 111 52 L 111 27.149 C 113.2743 25.2268 115.7545 23.9279 117.7354 23.9279 C 120.3031 23.9279 121 25.0956 121 29.0773 L 121 52 L 129.875 52 L 130 52 Z" fill="#ac0000"/>	<path d="M 170.3301 52 C 169.7001 50.6063 169 47.7903 169 38.8381 L 169 1.5626 L 160 0.0625 L 160 12.6408 C 160 14.785 160.1516 17.1543 160.2871 17.8595 C 158.3985 16.5772 156.0727 16 153.251 16 C 143.9354 16 138.0375 23.0739 138.0375 34.5387 C 138.0375 45.9087 143.4716 52.9471 152.7171 52.9471 C 156.2252 52.9471 159.1995 51.9303 161.528 49.9094 C 161.6635 50.885 161.799 51.4425 162.07 52 L 170.2426 52 L 170.3301 52 ZM 160 42.7074 C 159.0095 43.8539 156.9116 45.0721 155.005 45.0721 C 149.6666 45.0721 147.9125 42.4925 147.9125 34.6104 C 147.9125 26.4417 149.8579 22.8607 154.4337 22.8607 C 156.264 22.8607 158.0943 23.6471 160 25.2236 L 160 42.7074 L 160 42.7074 Z" fill="#ac0000"/>	<path d="M 187 52 L 187 16.0625 L 178 17.499 L 178 52 L 186.875 52 L 187 52 ZM 187.9826 6.0002 C 187.9826 2.7616 185.5387 0.1562 182.5579 0.1562 C 179.511 0.1562 176.9374 2.7616 176.9374 6.0002 C 176.9374 9.2388 179.4447 11.8437 182.4255 11.8437 C 185.4724 11.8437 187.9826 9.2388 187.9826 6.0002 L 187.9826 6.0002 Z" fill="#ac0000"/>	<path d="M 225 52 L 225 26.2627 C 225 24.0659 224.6102 22.5342 224.1396 21.2101 C 223.0639 18.1439 219.7024 16.0529 215.8634 16.0529 C 213.6625 16.0529 211.0947 16.6108 209.1139 17.5864 C 207.4999 18.4227 206.2527 19.2589 204.8861 20.2345 C 204.8861 18.7711 204.4224 17.238 203.6276 15.7729 L 195.7399 18.1439 C 196.58 20.5133 197 23.4401 197 26.4686 L 197 52 L 206 52 L 206 27.149 C 208.2743 25.2268 210.9045 23.9279 212.8854 23.9279 C 215.4531 23.9279 216 25.0956 216 29.0773 L 216 52 L 224.875 52 L 225 52 Z" fill="#ac0000"/>	<path d="M 270.6232 20.5505 L 266.7028 14.0625 C 264.5326 16.56 262.0266 17.6802 259.6469 17.6802 C 258.5535 17.6802 257.3958 17.4001 255.595 16.9101 C 252.9413 16.28 250.9954 16 248.8249 16 C 239.475 16 233.8875 20.7605 233.8875 27.996 C 233.8875 33.1947 236.254 36.2971 241.1183 37.5513 C 235.5966 39.0139 234.9393 41.3861 234.9393 43.8728 C 234.9393 46.4272 235.9253 48.1754 237.5029 48.8323 C 239.0806 49.5621 241.6442 49.927 245.9808 50 L 250.2469 50 C 254.2137 50.0703 256.9456 51.0545 256.9456 54.2881 C 256.9456 55.7644 256.1095 57.1007 254.8125 57.9442 C 253.2407 58.8581 251.0703 59.1393 248.5255 59.1393 C 243.8852 59.1393 241.5128 57.202 241.5128 54.3198 C 241.5128 53.3356 241.5785 52.8436 241.9072 52 L 233.7475 52 C 233.3975 52.703 232.9074 53.6871 232.9074 55.6555 C 232.9074 58.1159 233.8875 60.5519 235.7281 62.3007 C 238.7519 65.1929 243.8104 66 249.274 66 C 255.2091 66 260.1614 64.7893 263.0556 61.5608 C 264.9526 59.543 265.8627 57.2413 265.8627 54.2185 C 265.8627 50.9848 264.8826 48.4011 262.8627 46.3575 C 260.5473 43.9491 257.9103 43.0733 252.5671 43 L 247.1783 43 C 246.1305 43 245.5318 42.6174 245.5318 42.0817 C 245.5318 41.0104 246.9538 40.0853 249.4985 38.8715 C 250.2469 38.9375 250.5463 38.9375 250.9954 38.9375 C 258.5535 38.9375 263.6988 34.7129 263.6988 28.7491 C 263.6988 26.4213 263.0556 24.6411 261.7693 22.998 C 262.2838 23.0664 263.1843 23.2034 264.0425 23.2034 C 266.6328 23.2034 268.593 22.4407 270.6232 20.5505 L 270.6232 20.5505 ZM 254.8125 28.0645 C 254.8125 31.2824 252.642 33.0625 248.6752 33.0625 C 245.1575 33.0625 242.7625 31.6247 242.7625 28.0645 C 242.7625 24.7781 244.933 22.8607 248.7501 22.8607 C 252.5671 22.8607 254.8125 24.7781 254.8125 28.0645 L 254.8125 28.0645 Z" fill="#ac0000"/></svg>